<svg xmlns="http://www.w3.org/2000/svg" xmlns:xlink="http://www.w3.org/1999/xlink" version="1.1" x="0px" y="0px" viewBox="0 0 100 125" enable-background="new 0 0 100 100" xml:space="preserve"><g><path d="M78.859,59.635h-3.86h-3.84v3.83h-3.85h-3.841v3.86h-3.85v3.83h-3.84v3.859h-3.85v-3.859v-3.83v-3.86v-3.83v-3.86h3.85   v3.86h3.84h3.85h3.841v-3.86h3.85v-3.83h3.84v-3.859v-3.86v-3.83h-3.84v-3.86h3.84v-3.83h3.86v-3.86v-3.83v-3.86v-3.83h-3.86v-3.86   h-3.84h-3.85h-3.841v-3.83h-3.85v-3.86h-3.84h-3.85h-3.86h-3.83h-3.86v3.86h-3.83v3.83h-3.859h-3.83h-3.86v3.86h-3.84v3.83v3.86   v3.83v3.86h3.84v3.83h3.86v3.86h-3.86v3.83v3.86v3.859h3.86v3.83h3.83v3.86h3.859h3.83h3.86v-3.86h3.83v3.86v3.83v3.86v3.83v3.859   h-3.83v-3.859h-3.86v-3.83h-3.83v-3.86h-3.859h-3.83v-3.83h-3.86h-3.84h-3.85v3.83v3.86v3.83v3.859h3.85h3.84v3.83h3.86v3.86v3.829   h3.83h3.859v3.861h3.83h3.86h3.83v3.83h3.86v-3.83h3.85h3.84h3.85v-3.861h3.841h3.85v-3.829v-3.86h3.84v-3.83h3.86h3.83v-3.859   v-3.83v-3.86v-3.83H78.859z M44.239,51.944h-3.86v3.83h-3.83v-3.83h-3.859v-3.859h-3.83v-3.86h3.83v-3.83h3.859v-3.86h-3.859v-3.83   h-3.83v-3.86h-3.86v-3.83v-3.86h3.86v-3.83h3.83h3.859v3.83h3.83v-3.83v-3.86h3.86v-3.83h3.83h3.86h3.85v3.83h3.84v3.86v3.83h3.85   v-3.83h3.841h3.85v3.83h3.84v3.86v3.83h-3.84v3.86h-3.85v3.83h-3.841v3.86h3.841v3.83h3.85v3.86h-3.85v3.859h-3.841v3.83h-3.85   v-3.83h-3.84h-3.85h-3.86H44.239z M44.239,86.534h-3.86v-3.829h-3.83h-3.859v-3.86v-3.83h-3.83v-3.859h-3.86h-3.84v-3.83v-3.86   h3.84v3.86h3.86h3.83v3.83h3.859v3.859h3.83v3.83h3.86v3.86h3.83v3.829H44.239z M78.859,67.325v3.83h-3.86h-3.84v3.859h-3.85v3.83   v3.86h-3.841h-3.85v3.829h-3.84h-3.85v-3.829h3.85v-3.86h3.84v-3.83h3.85v-3.859h3.841v-3.83h3.85h3.84v-3.86h3.86V67.325z"/><path d="M55.779,44.225v-3.83h3.84v-3.86v-3.83v-3.86h-3.84v-3.83h-3.85h-3.86h-3.83v3.83h-3.86v3.86v3.83v3.86h3.86v3.83h3.83   h3.86H55.779z M48.069,40.395v-3.86h-3.83v-3.83h3.83v-3.86h3.86v3.86h3.85v3.83h-3.85v3.86H48.069z"/></g><text x="0" y="115" fill="#000000" font-size="5px" font-weight="bold" font-family="'Helvetica Neue', Helvetica, Arial-Unicode, Arial, Sans-serif">Created by Bakunetsu Kaito</text><text x="0" y="120" fill="#000000" font-size="5px" font-weight="bold" font-family="'Helvetica Neue', Helvetica, Arial-Unicode, Arial, Sans-serif">from the Noun Project</text></svg>